<svg xmlns="http://www.w3.org/2000/svg" viewBox="0 0 64 64" role="img" aria-label="OctoSense"><g fill="#243f30" transform="translate(32 32)"><path d="M 0 -5 C -3.1 -5 -5 -9.4 -5 -14.8 C -5 -20.3 -2.5 -25 0.8 -25 C 3.6 -25 5.4 -22.9 4.9 -20.7 C 4.7 -20 4.2 -19.6 3.9 -19.7 C 3.6 -19.8 3.5 -20.1 3.2 -20 C 2.9 -19.9 2.9 -19.5 3 -19 C 3.4 -16.3 4.5 -13.3 4.3 -9.7 C 4.1 -6.8 2.1 -5 0 -5 Z" transform="rotate(0)"/><path d="M 0 -5 C -3.1 -5 -5 -9.4 -5 -14.8 C -5 -20.3 -2.5 -25 0.8 -25 C 3.6 -25 5.4 -22.9 4.9 -20.7 C 4.7 -20 4.2 -19.6 3.9 -19.7 C 3.6 -19.8 3.5 -20.1 3.2 -20 C 2.9 -19.9 2.9 -19.5 3 -19 C 3.4 -16.3 4.5 -13.3 4.3 -9.7 C 4.1 -6.8 2.1 -5 0 -5 Z" transform="rotate(45)"/><path d="M 0 -5 C -3.1 -5 -5 -9.4 -5 -14.8 C -5 -20.3 -2.5 -25 0.8 -25 C 3.6 -25 5.4 -22.9 4.9 -20.7 C 4.7 -20 4.2 -19.6 3.9 -19.7 C 3.6 -19.8 3.5 -20.1 3.2 -20 C 2.9 -19.9 2.9 -19.5 3 -19 C 3.4 -16.3 4.5 -13.3 4.3 -9.7 C 4.1 -6.8 2.1 -5 0 -5 Z" transform="rotate(90)"/><path d="M 0 -5 C -3.1 -5 -5 -9.4 -5 -14.8 C -5 -20.3 -2.5 -25 0.8 -25 C 3.6 -25 5.4 -22.9 4.9 -20.7 C 4.7 -20 4.2 -19.6 3.9 -19.7 C 3.6 -19.8 3.5 -20.1 3.2 -20 C 2.9 -19.9 2.9 -19.5 3 -19 C 3.4 -16.3 4.5 -13.3 4.3 -9.7 C 4.1 -6.8 2.1 -5 0 -5 Z" transform="rotate(135)"/><path d="M 0 -5 C -3.1 -5 -5 -9.4 -5 -14.8 C -5 -20.3 -2.5 -25 0.8 -25 C 3.6 -25 5.4 -22.9 4.9 -20.7 C 4.7 -20 4.2 -19.6 3.9 -19.7 C 3.6 -19.8 3.5 -20.1 3.2 -20 C 2.9 -19.9 2.9 -19.5 3 -19 C 3.4 -16.3 4.5 -13.3 4.3 -9.7 C 4.1 -6.8 2.1 -5 0 -5 Z" transform="rotate(180)"/><path d="M 0 -5 C -3.1 -5 -5 -9.4 -5 -14.8 C -5 -20.3 -2.5 -25 0.8 -25 C 3.6 -25 5.4 -22.9 4.9 -20.7 C 4.7 -20 4.2 -19.6 3.9 -19.7 C 3.6 -19.8 3.5 -20.1 3.2 -20 C 2.9 -19.9 2.9 -19.5 3 -19 C 3.4 -16.3 4.5 -13.3 4.3 -9.7 C 4.1 -6.8 2.1 -5 0 -5 Z" transform="rotate(225)"/><path d="M 0 -5 C -3.1 -5 -5 -9.4 -5 -14.8 C -5 -20.3 -2.5 -25 0.8 -25 C 3.6 -25 5.4 -22.9 4.9 -20.7 C 4.7 -20 4.2 -19.6 3.9 -19.7 C 3.6 -19.8 3.5 -20.1 3.2 -20 C 2.9 -19.9 2.9 -19.5 3 -19 C 3.4 -16.3 4.5 -13.3 4.3 -9.7 C 4.1 -6.8 2.1 -5 0 -5 Z" transform="rotate(270)"/><path d="M 0 -5 C -3.1 -5 -5 -9.4 -5 -14.8 C -5 -20.3 -2.5 -25 0.8 -25 C 3.6 -25 5.4 -22.9 4.9 -20.7 C 4.7 -20 4.2 -19.6 3.9 -19.7 C 3.6 -19.8 3.5 -20.1 3.2 -20 C 2.9 -19.9 2.9 -19.5 3 -19 C 3.4 -16.3 4.5 -13.3 4.3 -9.7 C 4.1 -6.8 2.1 -5 0 -5 Z" transform="rotate(315)"/></g></svg>
